<?xml version="1.0" standalone="no"?>
<!DOCTYPE svg PUBLIC "-//W3C//DTD SVG 20010904//EN"
 "http://www.w3.org/TR/2001/REC-SVG-20010904/DTD/svg10.dtd">
<svg version="1.0" xmlns="http://www.w3.org/2000/svg"
 width="800.000000pt" height="800.000000pt" viewBox="0 0 800.000000 800.000000"
 preserveAspectRatio="xMidYMid meet">

<g transform="translate(0.000000,800.000000) scale(0.100000,-0.100000)"
fill="#000000" stroke="none">
<path d="M3475 6940 l-391 -390 -169 0 -170 -1 -130 -124 -130 -124 355 -1
355 0 335 335 c184 184 338 335 341 335 4 0 156 -151 340 -335 l333 -335 355
0 356 1 -130 124 -130 124 -171 1 -171 0 -383 390 c-210 215 -387 390 -393
390 -6 0 -187 -175 -402 -390z"/>
<path d="M1736 5580 l-131 -130 180 0 180 0 -160 -160 -160 -160 208 -208
c114 -114 207 -212 207 -217 0 -5 -92 -102 -205 -215 l-205 -205 960 -960 960
-960 0 600 0 600 -416 415 c-228 228 -578 581 -776 783 l-362 368 290 290 289
289 -364 0 -364 0 -131 -130z m1047 -1594 l527 -534 0 -226 c0 -124 -3 -226
-7 -226 -5 0 -297 289 -650 642 l-643 643 117 117 c65 65 120 118 123 118 3 0
242 -240 533 -534z"/>
<path d="M2832 5417 l-292 -292 510 -510 c280 -280 511 -507 514 -505 2 3 2
364 -1 803 l-6 797 -216 0 -216 0 -293 -293z m478 -329 l0 -363 -202 202 -203
203 160 160 c156 157 161 160 202 160 l43 0 0 -362z"/>
<path d="M4160 4910 c0 -440 3 -800 8 -800 4 0 235 228 515 508 l507 507 -293
293 -292 292 -223 0 -222 0 0 -800z m505 380 l160 -160 -203 -203 -202 -202 0
363 0 362 43 0 c41 0 46 -3 202 -160z"/>
<path d="M5428 5417 l294 -294 -781 -774 -781 -774 0 -605 0 -605 960 960 960
960 -208 208 -207 208 208 202 c114 111 207 206 207 212 0 5 -73 83 -162 172
l-163 163 183 0 c100 0 182 4 182 8 0 4 -56 63 -123 130 l-124 122 -369 0
-369 0 293 -293z m-350 -1774 c-354 -354 -646 -643 -650 -643 -5 0 -8 105 -8
233 l-1 232 533 527 533 527 118 -117 117 -117 -642 -642z"/>
<path d="M2210 1525 l0 -325 60 0 60 0 0 141 c0 155 11 197 56 218 55 25 98 6
114 -50 6 -19 10 -96 10 -171 l0 -138 55 0 55 0 0 185 c0 204 -5 226 -59 264
-16 12 -49 24 -74 27 -41 6 -68 -2 -149 -44 -5 -2 -8 46 -8 107 l0 111 -60 0
-60 0 0 -325z"/>
<path d="M5810 1525 l0 -325 30 0 30 0 0 325 0 325 -30 0 -30 0 0 -325z"/>
<path d="M6400 1718 c-1 -94 -4 -128 -11 -116 -16 28 -91 67 -141 74 -29 4
-65 1 -100 -10 -143 -41 -212 -210 -140 -346 71 -138 256 -171 370 -67 l22 20
0 -36 c0 -34 2 -37 30 -37 l30 0 0 325 0 325 -30 0 -30 0 0 -132z m-92 -119
c64 -32 97 -86 97 -164 0 -78 -33 -132 -97 -164 -128 -61 -268 24 -268 164 0
140 140 225 268 164z"/>
<path d="M1270 1770 l0 -60 55 0 55 0 0 -255 0 -255 60 0 60 0 0 255 0 255 60
0 60 0 0 60 0 60 -175 0 -175 0 0 -60z"/>
<path d="M4126 1808 c4 -13 45 -153 90 -312 46 -159 86 -291 89 -294 2 -3 9 6
14 19 55 144 174 436 180 442 4 4 49 -99 100 -229 51 -130 96 -232 100 -227 7
7 181 603 181 618 0 3 -14 5 -31 3 l-32 -3 -61 -212 c-34 -117 -64 -214 -67
-218 -3 -3 -44 93 -91 212 -47 119 -89 218 -94 220 -5 2 -42 -82 -83 -185
-108 -271 -102 -258 -110 -242 -5 8 -34 108 -66 223 l-59 207 -34 0 c-30 0
-33 -2 -26 -22z"/>
<path d="M2865 1666 c-51 -19 -120 -92 -134 -142 -29 -103 -7 -199 60 -266 73
-73 159 -86 249 -39 40 20 40 20 40 1 0 -18 7 -20 60 -20 l60 0 0 235 0 235
-60 0 c-53 0 -60 -2 -60 -20 0 -25 -1 -25 -43 0 -46 27 -122 34 -172 16z m156
-111 c120 -63 71 -255 -65 -255 -31 0 -45 7 -77 39 -35 35 -39 44 -39 91 0 30
7 64 16 79 34 57 105 77 165 46z"/>
<path d="M3507 1666 c-21 -8 -47 -22 -58 -32 -18 -16 -19 -16 -19 9 0 26 -2
27 -60 27 l-60 0 0 -235 0 -235 60 0 60 0 0 148 c0 153 5 174 50 209 27 21 74
15 101 -13 23 -24 24 -32 27 -185 l4 -159 59 0 59 0 0 146 c0 87 4 154 11 167
31 60 99 75 140 31 23 -24 24 -32 28 -185 l3 -159 54 0 54 0 0 185 c0 201 -5
224 -56 264 -57 45 -168 35 -224 -20 l-31 -31 -21 27 c-40 51 -108 67 -181 41z"/>
<path d="M5142 1670 c-54 -13 -110 -57 -142 -113 -67 -117 -24 -278 91 -337
95 -49 214 -31 286 42 96 98 98 236 5 339 -61 68 -144 92 -240 69z m160 -79
c77 -49 108 -144 73 -228 -20 -48 -41 -71 -87 -94 -87 -45 -197 -7 -244 83
-18 34 -18 119 0 161 42 99 165 137 258 78z"/>
<path d="M5670 1669 c-14 -6 -37 -22 -52 -36 l-28 -27 0 32 c0 27 -4 32 -25
32 l-25 0 0 -235 0 -235 23 0 c24 0 24 1 31 147 3 80 11 164 18 185 15 52 62
91 100 86 24 -4 32 0 43 23 13 25 13 27 -8 33 -30 8 -47 7 -77 -5z"/>
<path d="M1692 1498 c3 -136 7 -179 20 -203 64 -118 234 -142 329 -46 48 47
59 102 59 281 l0 140 -60 0 -60 0 0 -150 c0 -188 -12 -220 -85 -220 -73 0 -85
32 -85 220 l0 150 -61 0 -61 0 4 -172z"/>
</g>
</svg>
